<svg xmlns="http://www.w3.org/2000/svg" xmlns:xlink="http://www.w3.org/1999/xlink" width="140" height="140" viewBox="0 0 140 140">
    <defs>
        <clipPath id="clip-path">
        <rect id="Rectangle_8" data-name="Rectangle 8" width="140" height="140" transform="translate(419.5 797)" fill="#fff" stroke="#707070" stroke-width="1"/>
        </clipPath>
    </defs>
    <g id="Mask_Group_4" data-name="Mask Group 4" transform="translate(-419.5 -797)" clip-path="url(#clip-path)">
        <g id="_069-add" data-name="069-add" transform="translate(417.157 795.42)">
        <path id="Path_52" data-name="Path 52" d="M127.942,111.022c0-27.8,14.4-46.892,14.4-60.288S134.642,9.2,73.016,9.2,2.343,47.053,2.343,61.787C2.343,130.784,127.942,160.257,127.942,111.022Z" fill="#efefef"/>
        <g id="Group_15" data-name="Group 15">
            <path id="Path_53" data-name="Path 53" d="M114.4,7.9h4.019v8.037H114.4Z" transform="translate(25.666 85.817) rotate(-45)" fill="#a4afc1"/>
            <path id="Path_54" data-name="Path 54" d="M130.736,24.244h4.019v8.037h-4.019Z" transform="translate(18.898 102.159) rotate(-45)" fill="#a4afc1"/>
            <path id="Path_55" data-name="Path 55" d="M128.016,9.914h8.037v4.019h-8.037Z" transform="translate(30.244 96.87) rotate(-45)" fill="#a4afc1"/>
        </g>
        <path id="Path_56" data-name="Path 56" d="M35.168,27.129h74.355a8.036,8.036,0,0,1,8.038,8.038V47.225a8.036,8.036,0,0,1-8.038,8.038H35.168a8.036,8.036,0,0,1-8.038-8.038V35.168A8.036,8.036,0,0,1,35.168,27.129Z" fill="#f3f3f1"/>
        <path id="Path_57" data-name="Path 57" d="M35.168,55.264h74.355a8.036,8.036,0,0,1,8.038,8.038V73.35a8.036,8.036,0,0,1-8.038,8.038H35.168a8.036,8.036,0,0,1-8.038-8.038V63.3A8.036,8.036,0,0,1,35.168,55.264Z" fill="#f3f3f1"/>
        <path id="Path_58" data-name="Path 58" d="M35.168,81.388H105.5a8.036,8.036,0,0,1,8.038,8.038v12.058a8.036,8.036,0,0,1-8.038,8.038H35.168a8.036,8.036,0,0,1-8.038-8.038V89.427A8.036,8.036,0,0,1,35.168,81.388Z" fill="#f3f3f1"/>
        <circle id="Ellipse_1" data-name="Ellipse 1" cx="19.091" cy="19.091" r="19.091" transform="translate(79.379 79.379)" fill="rgba(117,16,247,0.4)"/>
        <path id="Path_59" data-name="Path 59" d="M88.422,98.47a19.052,19.052,0,0,1,14.57-18.492,18.84,18.84,0,0,0-4.522-.6,19.091,19.091,0,0,0,0,38.182,18.84,18.84,0,0,0,4.522-.6A19.052,19.052,0,0,1,88.422,98.47Z" fill="#7510f7"/>
        <path id="Path_60" data-name="Path 60" d="M36.173,47.225V35.168a8.036,8.036,0,0,1,8.038-8.038H35.168a8.036,8.036,0,0,0-8.038,8.038V47.225a8.036,8.036,0,0,0,8.038,8.038h9.043A8.036,8.036,0,0,1,36.173,47.225Z" fill="#d5dbe1"/>
        <path id="Path_61" data-name="Path 61" d="M36.173,73.35V63.3a8.036,8.036,0,0,1,8.038-8.038H35.168A8.036,8.036,0,0,0,27.129,63.3V73.35a8.036,8.036,0,0,0,8.038,8.038h9.043A8.036,8.036,0,0,1,36.173,73.35Z" fill="#d5dbe1"/>
        <path id="Path_62" data-name="Path 62" d="M36.173,101.484V89.427a8.036,8.036,0,0,1,8.038-8.038H35.168a8.036,8.036,0,0,0-8.038,8.038v12.058a8.036,8.036,0,0,0,8.038,8.038h9.043A8.036,8.036,0,0,1,36.173,101.484Z" fill="#d5dbe1"/>
        <path id="Path_63" data-name="Path 63" d="M68.326,112.537H35.168a11.065,11.065,0,0,1-11.053-11.053V89.427A11.065,11.065,0,0,1,35.168,78.374h37.5V84.4h-37.5a5.031,5.031,0,0,0-5.024,5.024v12.058a5.031,5.031,0,0,0,5.024,5.024H68.326Z"/>
        <path id="Path_64" data-name="Path 64" d="M72.667,84.4h-37.5A11.062,11.062,0,0,1,24.115,73.35V63.3A11.062,11.062,0,0,1,35.168,52.249h74.355A11.062,11.062,0,0,1,120.575,63.3v9.043h-6.029V63.3a5.031,5.031,0,0,0-5.024-5.024H35.168A5.031,5.031,0,0,0,30.144,63.3V73.35a5.031,5.031,0,0,0,5.024,5.024h37.5Z"/>
        <path id="Path_65" data-name="Path 65" d="M109.523,58.278H35.168A11.062,11.062,0,0,1,24.115,47.225V35.168A11.062,11.062,0,0,1,35.168,24.115h74.355a11.062,11.062,0,0,1,11.053,11.053V47.225A11.062,11.062,0,0,1,109.523,58.278ZM35.168,30.144a5.031,5.031,0,0,0-5.024,5.024V47.225a5.031,5.031,0,0,0,5.024,5.024h74.355a5.031,5.031,0,0,0,5.024-5.024V35.168a5.031,5.031,0,0,0-5.024-5.024Z"/>
        <path id="Path_66" data-name="Path 66" d="M48.23,27.129h6.029v82.393H48.23Z"/>
        <path id="Path_67" data-name="Path 67" d="M98.47,120.575A22.105,22.105,0,1,1,120.575,98.47,22.129,22.129,0,0,1,98.47,120.575Zm0-38.182A16.077,16.077,0,1,0,114.547,98.47,16.093,16.093,0,0,0,98.47,82.393Z"/>
        <path id="Path_68" data-name="Path 68" d="M95.455,88.422h6.029v20.1H95.455Z"/>
        <path id="Path_69" data-name="Path 69" d="M88.422,95.455h20.1v6.029h-20.1Z"/>
        </g>
    </g>
</svg>
