<svg xmlns="http://www.w3.org/2000/svg" xmlns:xlink="http://www.w3.org/1999/xlink" width="140" height="140" viewBox="0 0 140 140">
    <defs>
        <clipPath id="clip-path">
        <rect id="Rectangle_7" data-name="Rectangle 7" width="140" height="140" transform="translate(1163.5 797)" fill="#fff" stroke="#707070" stroke-width="1"/>
        </clipPath>
    </defs>
    <g id="Mask_Group_3" data-name="Mask Group 3" transform="translate(-1163.5 -797)" clip-path="url(#clip-path)">
        <g id="_095-responsive_webpage" data-name="095-responsive webpage" transform="translate(1161.927 794.657)">
        <path id="Path_34" data-name="Path 34" d="M33.669,127.942c27.8,0,46.892,14.4,60.288,14.4s41.53-7.7,41.53-69.327S97.638,2.343,82.9,2.343c-69,0-98.47,125.6-49.235,125.6Z" fill="#efefef"/>
        <g id="Group_14" data-name="Group 14">
            <path id="Path_35" data-name="Path 35" d="M24.244,13.932h8.037v4.019H24.244Z" transform="translate(-2.994 24.658) rotate(-45)" fill="#a4afc1"/>
            <path id="Path_36" data-name="Path 36" d="M7.9,30.272h8.037V34.29H7.9Z" transform="translate(-19.336 17.889) rotate(-45)" fill="#a4afc1"/>
            <path id="Path_37" data-name="Path 37" d="M10.625,11.923h4.019V19.96H10.625Z" transform="translate(-7.572 13.601) rotate(-45)" fill="#a4afc1"/>
        </g>
        <path id="Path_38" data-name="Path 38" d="M109.523,109.523H35.168a8.036,8.036,0,0,1-8.038-8.038V41.2h90.431v60.288A8.036,8.036,0,0,1,109.523,109.523Z" fill="#f3f3f1"/>
        <path id="Path_39" data-name="Path 39" d="M27.129,41.2h90.431V35.168a8.036,8.036,0,0,0-8.038-8.038H35.168a8.036,8.036,0,0,0-8.038,8.038Z" fill="rgba(117,16,247,0.4)"/>
        <path id="Path_40" data-name="Path 40" d="M27.129,57.273V104.5H65.312V57.273a6.031,6.031,0,0,0-6.029-6.029H33.158A6.031,6.031,0,0,0,27.129,57.273Z" fill="#f3f3f1"/>
        <path id="Path_41" data-name="Path 41" d="M27.129,104.5v8.038a4.021,4.021,0,0,0,4.019,4.019H61.292a4.021,4.021,0,0,0,4.019-4.019V104.5Z" fill="rgba(117,16,247,0.4)"/>
        <path id="Path_42" data-name="Path 42" d="M44.211,27.129H35.168a8.036,8.036,0,0,0-8.038,8.038V41.2h9.043V35.168A8.036,8.036,0,0,1,44.211,27.129Z" fill="#7510f7"/>
        <path id="Path_43" data-name="Path 43" d="M36.173,112.537V104.5H27.129v8.038a4.021,4.021,0,0,0,4.019,4.019h9.043A4.021,4.021,0,0,1,36.173,112.537Z" fill="#7510f7"/>
        <path id="Path_44" data-name="Path 44" d="M36.173,41.2V50.24l-9.043,4.019V41.2Z" fill="#d5dbe1"/>
        <path id="Path_45" data-name="Path 45" d="M42.2,51.245H33.158a6.031,6.031,0,0,0-6.029,6.029V104.5h9.043V57.273A6.031,6.031,0,0,1,42.2,51.245Z" fill="#d5dbe1"/>
        <path id="Path_46" data-name="Path 46" d="M59.283,120.575H33.158a9.054,9.054,0,0,1-9.043-9.043V57.273a9.054,9.054,0,0,1,9.043-9.043H59.283a9.054,9.054,0,0,1,9.043,9.043v54.259A9.054,9.054,0,0,1,59.283,120.575ZM33.158,54.259a3.018,3.018,0,0,0-3.014,3.014v54.259a3.018,3.018,0,0,0,3.014,3.014H59.283a3.018,3.018,0,0,0,3.014-3.014V57.273a3.018,3.018,0,0,0-3.014-3.014Z"/>
        <path id="Path_47" data-name="Path 47" d="M27.129,102.489H65.312v6.029H27.129Z"/>
        <path id="Path_48" data-name="Path 48" d="M109.523,112.537H76.364v-6.029h33.158a5.031,5.031,0,0,0,5.024-5.024V35.168a5.031,5.031,0,0,0-5.024-5.024H35.168a5.031,5.031,0,0,0-5.024,5.024v5.064H24.115V35.168A11.062,11.062,0,0,1,35.168,24.115h74.355a11.062,11.062,0,0,1,11.053,11.053v66.316A11.062,11.062,0,0,1,109.523,112.537Z"/>
        <path id="Path_49" data-name="Path 49" d="M68.487,38.182h49.074v6.029H68.487Z"/>
        <path id="Path_50" data-name="Path 50" d="M81.268,69.823h21.31v6.028H81.268Z" transform="translate(-24.581 86.348) rotate(-45)"/>
        <path id="Path_51" data-name="Path 51" d="M96.46,84.4H83.4a3.015,3.015,0,0,1-3.014-3.014V68.326h6.029V78.374H96.46Z"/>
        </g>
    </g>
</svg>
