<svg xmlns="http://www.w3.org/2000/svg" xmlns:xlink="http://www.w3.org/1999/xlink" width="140" height="140" viewBox="0 0 140 140">
    <defs>
        <clipPath id="clip-path">
        <rect id="Rectangle_9" data-name="Rectangle 9" width="140" height="140" transform="translate(1163.5 797)" fill="#fff" stroke="#707070" stroke-width="1"/>
        </clipPath>
    </defs>
    <g id="Mask_Group_5" data-name="Mask Group 5" transform="translate(-1163.5 -797)" clip-path="url(#clip-path)">
        <g id="_074-slider_navigation" data-name="074-slider navigation" transform="translate(1161.153 795.236)">
        <path id="Path_70" data-name="Path 70" d="M16.748,33.67c0,27.8-14.4,46.893-14.4,60.289s7.7,41.531,69.329,41.531,70.671-37.85,70.671-52.584c0-69-125.6-98.473-125.6-49.236Z" fill="#efefef"/>
        <path id="Path_71" data-name="Path 71" d="M78.376,20.1a6.029,6.029,0,1,1,6.029-6.029A6.036,6.036,0,0,1,78.376,20.1Zm0-8.039a2.01,2.01,0,1,0,2.01,2.01A2.013,2.013,0,0,0,78.376,12.058Z" fill="#a4afc1"/>
        <path id="Path_72" data-name="Path 72" d="M89.429,109.526H55.265a8.036,8.036,0,0,1-8.039-8.039V43.207a8.036,8.036,0,0,1,8.039-8.039H89.429a8.036,8.036,0,0,1,8.039,8.039v58.28A8.036,8.036,0,0,1,89.429,109.526Z" fill="rgba(117,16,247,0.4)"/>
        <path id="Path_73" data-name="Path 73" d="M56.27,101.487V43.207a8.036,8.036,0,0,1,8.039-8.039H55.265a8.036,8.036,0,0,0-8.039,8.039v58.28a8.036,8.036,0,0,0,8.039,8.039h9.043A8.036,8.036,0,0,1,56.27,101.487Z" fill="#7510f7"/>
        <path id="Path_74" data-name="Path 74" d="M112.138,84.606l-4.823-3.617,6.483-8.641-6.483-8.641,4.823-3.617,7.834,10.45a3.014,3.014,0,0,1,0,3.617Z"/>
        <path id="Path_75" data-name="Path 75" d="M32.556,84.606l-7.834-10.45a3.014,3.014,0,0,1,0-3.617l7.834-10.45,4.823,3.617L30.9,72.347l6.479,8.641Z"/>
        <path id="Path_76" data-name="Path 76" d="M89.429,112.54H55.265a11.062,11.062,0,0,1-11.053-11.053V43.207A11.062,11.062,0,0,1,55.265,32.154H89.429a11.062,11.062,0,0,1,11.053,11.053v58.28A11.062,11.062,0,0,1,89.429,112.54ZM55.265,38.183a5.031,5.031,0,0,0-5.024,5.024v58.28a5.031,5.031,0,0,0,5.024,5.024H89.429a5.031,5.031,0,0,0,5.024-5.024V43.207a5.031,5.031,0,0,0-5.024-5.024Z"/>
        </g>
    </g>
</svg>
